<svg width="37" height="37" viewBox="0 0 37 37" fill="none" xmlns="http://www.w3.org/2000/svg">
<path d="M27.9701 0H9.02991C4.04283 0 0 4.04283 0 9.02991V27.9701C0 32.9572 4.04283 37 9.02991 37H27.9701C32.9572 37 37 32.9572 37 27.9701V9.02991C37 4.04283 32.9572 0 27.9701 0Z" fill="#1DB779"/>
<path d="M8 30.3692V10.3944C8 10.079 8.23137 9.80302 8.55272 9.7636L24.2475 8.00266C24.5303 7.97637 24.8002 8.14721 24.8902 8.42318L28.9649 20.211C29.0421 20.4344 28.9907 20.6972 28.8235 20.868L24.376 25.4149C24.376 25.4149 24.376 25.4149 24.376 25.4281L27.371 30.0144C27.641 30.4349 27.3453 31 26.8569 31H21.0083C20.8412 31 20.6741 30.9343 20.5584 30.8029L14.954 24.7053H14.9283L15.2497 30.3167C15.2754 30.6846 14.9926 30.9869 14.6327 30.9869H8.62985C8.29564 30.9869 8.01285 30.7109 8.01285 30.3561L8 30.3692Z" fill="white"/>
</svg>
